<?xml version="1.0" standalone="no"?>
<!DOCTYPE svg PUBLIC "-//W3C//DTD SVG 20010904//EN"
 "http://www.w3.org/TR/2001/REC-SVG-20010904/DTD/svg10.dtd">
<svg version="1.0" xmlns="http://www.w3.org/2000/svg"
 width="150.000000pt" height="150.000000pt" viewBox="0 0 150.000000 150.000000"
 preserveAspectRatio="xMidYMid meet">

<g transform="translate(0.000000,150.000000) scale(0.100000,-0.100000)"
fill="#000000" stroke="none">
<path d="M395 1141 c-132 -61 -143 -234 -20 -309 24 -15 62 -38 84 -51 63 -38
82 -84 90 -215 8 -128 24 -162 91 -196 75 -38 161 -21 218 44 37 43 36 36 37
186 0 110 1 117 29 158 16 23 31 42 35 42 3 0 19 -23 35 -51 28 -51 28 -53 21
-160 -6 -102 -5 -111 17 -150 66 -117 240 -118 306 -1 24 44 30 118 11 155
-20 40 -72 86 -108 98 -56 19 -78 37 -102 85 -19 40 -20 53 -13 122 13 125 3
166 -56 216 -63 52 -153 54 -223 4 -51 -37 -62 -71 -62 -199 0 -111 -1 -117
-30 -164 -16 -27 -35 -50 -41 -52 -6 -2 -27 20 -45 49 l-34 53 3 112 c3 121
-4 148 -50 190 -30 28 -89 53 -125 53 -15 0 -46 -9 -68 -19z"/>
<path d="M152 679 c-50 -25 -78 -61 -90 -115 -17 -79 19 -159 88 -194 131 -67
280 42 257 187 -19 112 -150 175 -255 122z"/>
</g>
</svg>
